<?xml version="1.0" encoding="UTF-8"?>
<svg id="Layer_2" data-name="Layer 2" xmlns="http://www.w3.org/2000/svg" viewBox="0 0 173.6 172.07">
  <defs>
    <style>
      .cls-1 {
        opacity: .5;
      }

      .cls-1, .cls-2 {
        fill: #3a954f;
      }
    </style>
  </defs>
  <g id="Layer_2-2" data-name="Layer 2">
    <g id="Layer_1-2" data-name="Layer 1-2">
      <g>
        <path class="cls-2" d="M53.59,146.53l.54-.11c4.68-.88,14.72-1.61,18.69,1.05,2.99,4.73,2.45,18.06,1.46,23.82l-5.39.49-17.34.29c-.04-7.84-1.85-18.84,2.05-25.54h0Z"/>
        <path class="cls-1" d="M8.16,75.28c4.11-.42,7.77-.67,11.31,1.84,1.93,1.37,4.24,3.73,4.58,6.13.82,5.67,1.57,25.83-1.58,30.19-2.91,2.07-4.22,2.01-7.71,2.4-4.78.24-8.88-.02-12.67-2.95-2.73-5.26-2.42-23.27-1.12-29.28.94-4.3,3.77-6.1,7.19-8.34h0Z"/>
        <path class="cls-1" d="M57.42,94.97c3.93-.47,7.04-.94,10.78.67,2.67,1.15,5.31,3.58,6.26,6.37,1.35,3.94,1.66,26.84-.59,30.48-2.17,3.5-5.55,3.81-9.21,4.54-.63.25-1.1.34-1.77.3-3.68-.19-6.9-.21-9.44-3.2-4.23-4.97-3.34-22.21-2.74-28.94.47-5.36,2.76-6.99,6.72-10.22h-.01Z"/>
        <path class="cls-1" d="M156.13.28c4.07-.58,7.22-.43,10.67,2.08,2.76,2.01,5.33,5.35,5.76,8.82.63,5.08,1.15,28.05-1.53,31.15-2.73,3.15-5.42,3.3-9.32,3.56-2.36.09-5.05.33-7.38-.11-2.18-.42-4.89-2.57-6.08-4.45-2.34-3.72-1.5-27.75-.3-32.23,1.21-4.52,4.44-6.52,8.18-8.82h0Z"/>
        <path class="cls-2" d="M5.01,124.97c4.22-.45,11.8-1.22,15.42,1.17,2.01,1.32,3.11,2.72,3.59,5.06,1.72,8.56.24,20.56.24,29.45,0,3.39.75,8.19-1.09,10.94l-5.86.05-16.59-.06-.05-30.52c0-3.56-.68-9.19.99-12.33.64-1.2,2.39-2.69,3.34-3.75h.01Z"/>
        <path class="cls-1" d="M105.26,44.34c4.37-.97,8.47-1.3,12.41,1.18,2.73,1.72,4.75,4.42,5.42,7.61,1.16,5.57,1.75,29.58-1.62,33.87-2.17,2.76-4.43,2.68-7.62,3.28l-5.89.26c-3.27-.05-5.73-1.16-7.89-3.59-3.56-4-2.12-24.71-1.71-30.6.41-5.93,2.52-8.24,6.9-12.01Z"/>
        <path class="cls-2" d="M101.54,100.59l4.18-.4c4.52-.17,11.68-1.37,15.14,2.06,1.47,1.46,1.88,2.17,2.23,4.16.98,5.61.14,12.74.13,18.49l-.17,46.01-4.29.8-19.67-.21-.05-47.97c0-5.62-1.02-13.3.17-18.71.35-1.61,1.29-3,2.35-4.22h-.02Z"/>
        <path class="cls-2" d="M154.4,54.66c4.48-.2,11.11-1.19,15.09,1.16,2.14,1.27,2.9,2.62,3.37,4.95,1.43,7.24.24,17.25.24,24.74,0,10.58,1.56,82.53-.85,85.91l-6.79.13-16.73.07.17-111.8c1.76-2.79,2.62-3.58,5.52-5.16h-.02Z"/>
      </g>
    </g>
  </g>
</svg>